0
SECTION
2
HEADER
9
$INSUNITS
70
4
0
ENDSEC
0
SECTION
2
TABLES
0
TABLE
2
LTYPE
0
LTYPE
72
65
70
64
2
CONTINUOUS
3
______
73
0
40
0
0
ENDTAB
0
TABLE
2
LAYER
0
ENDTAB
0
ENDSEC
0
SECTION
2
ENTITIES
0
LINE
8
0
10
3.029
20
-2.525
11
16.021
21
-2.525
0
LINE
8
0
10
3.029
20
-16.525
11
16.021
21
-16.525
0
LINE
8
0
10
2.525
20
-3.029
11
2.525
21
-16.021
0
LINE
8
0
10
16.525
20
-3.029
11
16.525
21
-16.021
0
ARC
8
0
10
3.029
20
-3.029
40
0.504
50
90
51
180
0
ARC
8
0
10
16.021
20
-3.029
40
0.504
50
0
51
90
0
ARC
8
0
10
3.029
20
-16.021
40
0.504
50
180
51
270
0
ARC
8
0
10
16.021
20
-16.021
40
0.504
50
270
51
0
0
LINE
8
0
10
22.079
20
-2.525
11
35.071
21
-2.525
0
LINE
8
0
10
22.079
20
-16.525
11
35.071
21
-16.525
0
LINE
8
0
10
21.575
20
-3.029
11
21.575
21
-16.021
0
LINE
8
0
10
35.575
20
-3.029
11
35.575
21
-16.021
0
ARC
8
0
10
22.079
20
-3.029
40
0.504
50
90
51
180
0
ARC
8
0
10
35.071
20
-3.029
40
0.504
50
0
51
90
0
ARC
8
0
10
22.079
20
-16.021
40
0.504
50
180
51
270
0
ARC
8
0
10
35.071
20
-16.021
40
0.504
50
270
51
0
0
LINE
8
0
10
41.129
20
-2.525
11
54.121
21
-2.525
0
LINE
8
0
10
41.129
20
-16.525
11
54.121
21
-16.525
0
LINE
8
0
10
40.625
20
-3.029
11
40.625
21
-16.021
0
LINE
8
0
10
54.625
20
-3.029
11
54.625
21
-16.021
0
ARC
8
0
10
41.129
20
-3.029
40
0.504
50
90
51
180
0
ARC
8
0
10
54.121
20
-3.029
40
0.504
50
0
51
90
0
ARC
8
0
10
41.129
20
-16.021
40
0.504
50
180
51
270
0
ARC
8
0
10
54.121
20
-16.021
40
0.504
50
270
51
0
0
LINE
8
0
10
60.179
20
-2.525
11
73.171
21
-2.525
0
LINE
8
0
10
60.179
20
-16.525
11
73.171
21
-16.525
0
LINE
8
0
10
59.675
20
-3.029
11
59.675
21
-16.021
0
LINE
8
0
10
73.675
20
-3.029
11
73.675
21
-16.021
0
ARC
8
0
10
60.179
20
-3.029
40
0.504
50
90
51
180
0
ARC
8
0
10
73.171
20
-3.029
40
0.504
50
0
51
90
0
ARC
8
0
10
60.179
20
-16.021
40
0.504
50
180
51
270
0
ARC
8
0
10
73.171
20
-16.021
40
0.504
50
270
51
0
0
LINE
8
0
10
0
20
-19.05
11
76.2
21
-19.05
0
LINE
8
0
10
0
20
0
11
76.2
21
0
0
LINE
8
0
10
0
20
-19.05
11
0
21
0
0
LINE
8
0
10
76.2
20
-19.05
11
76.2
21
0
0
ENDSEC
0
EOF