M48
; DRILL file {KiCad 9.0.6} date 2026-01-26T21:48:22+0800
; FORMAT={-:-/ absolute / metric / decimal}
; #@! TF.CreationDate,2026-01-26T21:48:22+08:00
; #@! TF.GenerationSoftware,Kicad,Pcbnew,9.0.6
; #@! TF.FileFunction,Plated,1,2,PTH
FMAT,2
METRIC
; #@! TA.AperFunction,Plated,PTH,ViaDrill
T1C0.300
; #@! TA.AperFunction,Plated,PTH,ComponentDrill
T2C0.889
; #@! TA.AperFunction,Plated,PTH,ComponentDrill
T3C1.000
; #@! TA.AperFunction,Plated,PTH,ComponentDrill
T4C1.500
%
G90
G05
T1
X132.0Y-77.9
X136.76Y-71.4
T2
X136.931Y-61.13
X136.931Y-76.37
X139.471Y-61.13
X139.471Y-76.37
X142.011Y-61.13
X142.011Y-76.37
X144.552Y-61.13
X144.552Y-76.37
X147.091Y-61.13
X147.091Y-76.37
X149.631Y-61.13
X149.631Y-76.37
X152.171Y-61.13
X152.171Y-76.37
T3
X75.39Y-65.44
X75.39Y-67.94
X75.39Y-70.44
X89.89Y-65.44
X89.89Y-70.44
X129.534Y-67.742
X129.534Y-70.282
X129.534Y-72.822
X129.534Y-75.362
T4
X79.534Y-87.947
X85.884Y-85.407
X98.584Y-87.947
X104.934Y-85.407
X117.634Y-87.947
X123.984Y-85.407
X136.684Y-87.947
X143.034Y-85.407
T4
G00X82.24Y-62.34
M15
G01X83.54Y-62.34
M16
G05
G00X82.24Y-73.54
M15
G01X83.54Y-73.54
M16
G05
M30
