%TF.GenerationSoftware,KiCad,Pcbnew,9.0.6*%
%TF.CreationDate,2026-01-26T21:47:50+08:00*%
%TF.ProjectId,Hackpad,4861636b-7061-4642-9e6b-696361645f70,rev?*%
%TF.SameCoordinates,Original*%
%TF.FileFunction,Copper,L2,Bot*%
%TF.FilePolarity,Positive*%
%FSLAX46Y46*%
G04 Gerber Fmt 4.6, Leading zero omitted, Abs format (unit mm)*
G04 Created by KiCad (PCBNEW 9.0.6) date 2026-01-26 21:47:50*
%MOMM*%
%LPD*%
G01*
G04 APERTURE LIST*
%TA.AperFunction,ComponentPad*%
%ADD10C,1.524000*%
%TD*%
%TA.AperFunction,ComponentPad*%
%ADD11C,2.200000*%
%TD*%
%TA.AperFunction,ComponentPad*%
%ADD12C,1.500000*%
%TD*%
%TA.AperFunction,ComponentPad*%
%ADD13R,2.000000X2.000000*%
%TD*%
%TA.AperFunction,ComponentPad*%
%ADD14C,2.000000*%
%TD*%
%TA.AperFunction,ComponentPad*%
%ADD15R,3.200000X2.000000*%
%TD*%
%TA.AperFunction,ComponentPad*%
%ADD16R,1.700000X1.700000*%
%TD*%
%TA.AperFunction,ComponentPad*%
%ADD17O,1.700000X1.700000*%
%TD*%
%TA.AperFunction,ViaPad*%
%ADD18C,0.600000*%
%TD*%
%TA.AperFunction,Conductor*%
%ADD19C,0.200000*%
%TD*%
G04 APERTURE END LIST*
D10*
%TO.P,U1,1,GPIO26/ADC0/A0*%
%TO.N,Net-(D1-DIN)*%
X152171500Y-61130000D03*
%TO.P,U1,2,GPIO27/ADC1/A1*%
%TO.N,Net-(U1-GPIO27{slash}ADC1{slash}A1)*%
X149631500Y-61130000D03*
%TO.P,U1,3,GPIO28/ADC2/A2*%
%TO.N,Net-(U1-GPIO28{slash}ADC2{slash}A2)*%
X147091500Y-61130000D03*
%TO.P,U1,4,GPIO29/ADC3/A3*%
%TO.N,unconnected-(U1-GPIO29{slash}ADC3{slash}A3-Pad4)*%
X144551500Y-61130000D03*
%TO.P,U1,5,GPIO6/SDA*%
%TO.N,Net-(U1-GPIO6{slash}SDA)*%
X142011500Y-61130000D03*
%TO.P,U1,6,GPIO7/SCL*%
%TO.N,Net-(U1-GPIO7{slash}SCL)*%
X139471500Y-61130000D03*
%TO.P,U1,7,GPIO0/TX*%
%TO.N,unconnected-(U1-GPIO0{slash}TX-Pad7)*%
X136931500Y-61130000D03*
%TO.P,U1,8,GPIO1/RX*%
%TO.N,Net-(U1-GPIO1{slash}RX)*%
X136931500Y-76370000D03*
%TO.P,U1,9,GPIO2/SCK*%
%TO.N,Net-(U1-GPIO2{slash}SCK)*%
X139471500Y-76370000D03*
%TO.P,U1,10,GPIO4/MISO*%
%TO.N,Net-(U1-GPIO4{slash}MISO)*%
X142011500Y-76370000D03*
%TO.P,U1,11,GPIO3/MOSI*%
%TO.N,Net-(U1-GPIO3{slash}MOSI)*%
X144551500Y-76370000D03*
%TO.P,U1,12,3V3*%
%TO.N,+3.3V*%
X147091500Y-76370000D03*
%TO.P,U1,13,GND*%
%TO.N,GND*%
X149631500Y-76370000D03*
%TO.P,U1,14,VBUS*%
%TO.N,+5V*%
X152171500Y-76370000D03*
%TD*%
D11*
%TO.P,SW4,1,1*%
%TO.N,GND*%
X143033750Y-85407500D03*
%TO.P,SW4,2,2*%
%TO.N,Net-(U1-GPIO3{slash}MOSI)*%
X136683750Y-87947500D03*
%TD*%
D12*
%TO.P,SW5,*%
%TO.N,*%
X89890000Y-65440000D03*
X89890000Y-70440000D03*
D13*
%TO.P,SW5,A,A*%
%TO.N,Net-(U1-GPIO27{slash}ADC1{slash}A1)*%
X75390000Y-65440000D03*
D14*
%TO.P,SW5,B,B*%
%TO.N,Net-(U1-GPIO28{slash}ADC2{slash}A2)*%
X75390000Y-70440000D03*
%TO.P,SW5,C,C*%
%TO.N,GND*%
X75390000Y-67940000D03*
D15*
%TO.P,SW5,MP*%
%TO.N,N/C*%
X82890000Y-62340000D03*
X82890000Y-73540000D03*
%TD*%
D11*
%TO.P,SW3,1,1*%
%TO.N,GND*%
X123983750Y-85407500D03*
%TO.P,SW3,2,2*%
%TO.N,Net-(U1-GPIO4{slash}MISO)*%
X117633750Y-87947500D03*
%TD*%
%TO.P,SW1,1,1*%
%TO.N,GND*%
X85883750Y-85407500D03*
%TO.P,SW1,2,2*%
%TO.N,Net-(U1-GPIO1{slash}RX)*%
X79533750Y-87947500D03*
%TD*%
D16*
%TO.P,U2,1,VCC*%
%TO.N,GND*%
X129533750Y-67742500D03*
D17*
%TO.P,U2,2,GND*%
%TO.N,+3.3V*%
X129533750Y-70282500D03*
%TO.P,U2,3,SDA*%
%TO.N,Net-(U1-GPIO7{slash}SCL)*%
X129533750Y-72822500D03*
%TO.P,U2,4,SCL*%
%TO.N,Net-(U1-GPIO6{slash}SDA)*%
X129533750Y-75362500D03*
%TD*%
D11*
%TO.P,SW2,1,1*%
%TO.N,GND*%
X104933750Y-85407500D03*
%TO.P,SW2,2,2*%
%TO.N,Net-(U1-GPIO2{slash}SCK)*%
X98583750Y-87947500D03*
%TD*%
D18*
%TO.N,Net-(U1-GPIO28{slash}ADC2{slash}A2)*%
X132000000Y-77900000D03*
X136760000Y-71400000D03*
%TD*%
D19*
%TO.N,GND*%
X85883750Y-85407500D02*
X104933750Y-85407500D01*
X72680000Y-67950000D02*
X72690000Y-67940000D01*
X70930000Y-69790000D02*
X72680000Y-68040000D01*
X72680000Y-68040000D02*
X72680000Y-67950000D01*
X78337500Y-85407500D02*
X70930000Y-78000000D01*
X70930000Y-78000000D02*
X70930000Y-69790000D01*
X123983750Y-85407500D02*
X143033750Y-85407500D01*
X104933750Y-85407500D02*
X123983750Y-85407500D01*
X85883750Y-85407500D02*
X78337500Y-85407500D01*
X72690000Y-67940000D02*
X75390000Y-67940000D01*
%TO.N,Net-(U1-GPIO28{slash}ADC2{slash}A2)*%
X82850000Y-77900000D02*
X132000000Y-77900000D01*
X136760000Y-71400000D02*
X136760000Y-71210000D01*
X136760000Y-71210000D02*
X146830000Y-61140000D01*
X75390000Y-70440000D02*
X82850000Y-77900000D01*
%TO.N,Net-(U1-GPIO27{slash}ADC1{slash}A1)*%
X99477161Y-76513500D02*
X133996500Y-76513500D01*
X88403661Y-65440000D02*
X99477161Y-76513500D01*
X75390000Y-65440000D02*
X88403661Y-65440000D01*
X133996500Y-76513500D02*
X149370000Y-61140000D01*
%TO.N,Net-(U1-GPIO7{slash}SCL)*%
X139471500Y-62884750D02*
X129533750Y-72822500D01*
X139471500Y-61130000D02*
X139471500Y-62884750D01*
%TO.N,Net-(U1-GPIO6{slash}SDA)*%
X141750000Y-59810000D02*
X141750000Y-61140000D01*
X142011500Y-62884750D02*
X142011500Y-61130000D01*
X129533750Y-75362500D02*
X142011500Y-62884750D01*
%TD*%
M02*
