%TF.GenerationSoftware,KiCad,Pcbnew,9.0.6*%
%TF.CreationDate,2026-01-26T21:47:51+08:00*%
%TF.ProjectId,Hackpad,4861636b-7061-4642-9e6b-696361645f70,rev?*%
%TF.SameCoordinates,Original*%
%TF.FileFunction,Soldermask,Top*%
%TF.FilePolarity,Negative*%
%FSLAX46Y46*%
G04 Gerber Fmt 4.6, Leading zero omitted, Abs format (unit mm)*
G04 Created by KiCad (PCBNEW 9.0.6) date 2026-01-26 21:47:51*
%MOMM*%
%LPD*%
G01*
G04 APERTURE LIST*
G04 Aperture macros list*
%AMRoundRect*
0 Rectangle with rounded corners*
0 $1 Rounding radius*
0 $2 $3 $4 $5 $6 $7 $8 $9 X,Y pos of 4 corners*
0 Add a 4 corners polygon primitive as box body*
4,1,4,$2,$3,$4,$5,$6,$7,$8,$9,$2,$3,0*
0 Add four circle primitives for the rounded corners*
1,1,$1+$1,$2,$3*
1,1,$1+$1,$4,$5*
1,1,$1+$1,$6,$7*
1,1,$1+$1,$8,$9*
0 Add four rect primitives between the rounded corners*
20,1,$1+$1,$2,$3,$4,$5,0*
20,1,$1+$1,$4,$5,$6,$7,0*
20,1,$1+$1,$6,$7,$8,$9,0*
20,1,$1+$1,$8,$9,$2,$3,0*%
G04 Aperture macros list end*
%ADD10RoundRect,0.152400X0.609600X-1.063600X0.609600X1.063600X-0.609600X1.063600X-0.609600X-1.063600X0*%
%ADD11C,1.524000*%
%ADD12RoundRect,0.152400X-0.609600X1.063600X-0.609600X-1.063600X0.609600X-1.063600X0.609600X1.063600X0*%
%ADD13C,1.700000*%
%ADD14C,4.000000*%
%ADD15C,2.200000*%
%ADD16R,0.850000X1.600000*%
%ADD17C,1.500000*%
%ADD18R,2.000000X2.000000*%
%ADD19C,2.000000*%
%ADD20R,3.200000X2.000000*%
%ADD21R,1.700000X1.700000*%
%ADD22O,1.700000X1.700000*%
G04 APERTURE END LIST*
D10*
%TO.C,U1*%
X152171500Y-60295000D03*
D11*
X152171500Y-61130000D03*
D10*
X149631500Y-60295000D03*
D11*
X149631500Y-61130000D03*
D10*
X147091500Y-60295000D03*
D11*
X147091500Y-61130000D03*
D10*
X144551500Y-60295000D03*
D11*
X144551500Y-61130000D03*
D10*
X142011500Y-60295000D03*
D11*
X142011500Y-61130000D03*
D10*
X139471500Y-60295000D03*
D11*
X139471500Y-61130000D03*
D10*
X136931500Y-60295000D03*
D11*
X136931500Y-61130000D03*
X136931500Y-76370000D03*
D12*
X136931500Y-77205000D03*
D11*
X139471500Y-76370000D03*
D12*
X139471500Y-77205000D03*
D11*
X142011500Y-76370000D03*
D12*
X142011500Y-77205000D03*
D11*
X144551500Y-76370000D03*
D12*
X144551500Y-77205000D03*
D11*
X147091500Y-76370000D03*
D12*
X147091500Y-77205000D03*
D11*
X149631500Y-76370000D03*
D12*
X149631500Y-77205000D03*
D11*
X152171500Y-76370000D03*
D12*
X152171500Y-77205000D03*
%TD*%
D13*
%TO.C,SW4*%
X135413750Y-90487500D03*
D14*
X140493750Y-90487500D03*
D13*
X145573750Y-90487500D03*
D15*
X143033750Y-85407500D03*
X136683750Y-87947500D03*
%TD*%
D16*
%TO.C,D3*%
X112240000Y-62600000D03*
X113990000Y-62600000D03*
X113990000Y-59100000D03*
X112240000Y-59100000D03*
%TD*%
D17*
%TO.C,SW5*%
X89890000Y-65440000D03*
X89890000Y-70440000D03*
D18*
X75390000Y-65440000D03*
D19*
X75390000Y-70440000D03*
X75390000Y-67940000D03*
D20*
X82890000Y-62340000D03*
X82890000Y-73540000D03*
%TD*%
D16*
%TO.C,D1*%
X102000000Y-62600000D03*
X103750000Y-62600000D03*
X103750000Y-59100000D03*
X102000000Y-59100000D03*
%TD*%
D13*
%TO.C,SW3*%
X116363750Y-90487500D03*
D14*
X121443750Y-90487500D03*
D13*
X126523750Y-90487500D03*
D15*
X123983750Y-85407500D03*
X117633750Y-87947500D03*
%TD*%
D13*
%TO.C,SW1*%
X78263750Y-90487500D03*
D14*
X83343750Y-90487500D03*
D13*
X88423750Y-90487500D03*
D15*
X85883750Y-85407500D03*
X79533750Y-87947500D03*
%TD*%
D16*
%TO.C,D4*%
X117360000Y-62600000D03*
X119110000Y-62600000D03*
X119110000Y-59100000D03*
X117360000Y-59100000D03*
%TD*%
%TO.C,D2*%
X107120000Y-62600000D03*
X108870000Y-62600000D03*
X108870000Y-59100000D03*
X107120000Y-59100000D03*
%TD*%
D21*
%TO.C,U2*%
X129533750Y-67742500D03*
D22*
X129533750Y-70282500D03*
X129533750Y-72822500D03*
X129533750Y-75362500D03*
%TD*%
D13*
%TO.C,SW2*%
X97313750Y-90487500D03*
D14*
X102393750Y-90487500D03*
D13*
X107473750Y-90487500D03*
D15*
X104933750Y-85407500D03*
X98583750Y-87947500D03*
%TD*%
M02*
