%TF.GenerationSoftware,KiCad,Pcbnew,9.0.6*%
%TF.CreationDate,2026-01-26T21:47:51+08:00*%
%TF.ProjectId,Hackpad,4861636b-7061-4642-9e6b-696361645f70,rev?*%
%TF.SameCoordinates,Original*%
%TF.FileFunction,Soldermask,Bot*%
%TF.FilePolarity,Negative*%
%FSLAX46Y46*%
G04 Gerber Fmt 4.6, Leading zero omitted, Abs format (unit mm)*
G04 Created by KiCad (PCBNEW 9.0.6) date 2026-01-26 21:47:51*
%MOMM*%
%LPD*%
G01*
G04 APERTURE LIST*
%ADD10C,1.524000*%
%ADD11C,1.700000*%
%ADD12C,4.000000*%
%ADD13C,2.200000*%
%ADD14C,1.500000*%
%ADD15R,2.000000X2.000000*%
%ADD16C,2.000000*%
%ADD17R,3.200000X2.000000*%
%ADD18R,1.700000X1.700000*%
%ADD19O,1.700000X1.700000*%
G04 APERTURE END LIST*
D10*
%TO.C,U1*%
X152171500Y-61130000D03*
X149631500Y-61130000D03*
X147091500Y-61130000D03*
X144551500Y-61130000D03*
X142011500Y-61130000D03*
X139471500Y-61130000D03*
X136931500Y-61130000D03*
X136931500Y-76370000D03*
X139471500Y-76370000D03*
X142011500Y-76370000D03*
X144551500Y-76370000D03*
X147091500Y-76370000D03*
X149631500Y-76370000D03*
X152171500Y-76370000D03*
%TD*%
D11*
%TO.C,SW4*%
X135413750Y-90487500D03*
D12*
X140493750Y-90487500D03*
D11*
X145573750Y-90487500D03*
D13*
X143033750Y-85407500D03*
X136683750Y-87947500D03*
%TD*%
D14*
%TO.C,SW5*%
X89890000Y-65440000D03*
X89890000Y-70440000D03*
D15*
X75390000Y-65440000D03*
D16*
X75390000Y-70440000D03*
X75390000Y-67940000D03*
D17*
X82890000Y-62340000D03*
X82890000Y-73540000D03*
%TD*%
D11*
%TO.C,SW3*%
X116363750Y-90487500D03*
D12*
X121443750Y-90487500D03*
D11*
X126523750Y-90487500D03*
D13*
X123983750Y-85407500D03*
X117633750Y-87947500D03*
%TD*%
D11*
%TO.C,SW1*%
X78263750Y-90487500D03*
D12*
X83343750Y-90487500D03*
D11*
X88423750Y-90487500D03*
D13*
X85883750Y-85407500D03*
X79533750Y-87947500D03*
%TD*%
D18*
%TO.C,U2*%
X129533750Y-67742500D03*
D19*
X129533750Y-70282500D03*
X129533750Y-72822500D03*
X129533750Y-75362500D03*
%TD*%
D11*
%TO.C,SW2*%
X97313750Y-90487500D03*
D12*
X102393750Y-90487500D03*
D11*
X107473750Y-90487500D03*
D13*
X104933750Y-85407500D03*
X98583750Y-87947500D03*
%TD*%
M02*
