%TF.GenerationSoftware,KiCad,Pcbnew,9.0.6*%
%TF.CreationDate,2026-01-26T21:47:50+08:00*%
%TF.ProjectId,Hackpad,4861636b-7061-4642-9e6b-696361645f70,rev?*%
%TF.SameCoordinates,Original*%
%TF.FileFunction,Copper,L1,Top*%
%TF.FilePolarity,Positive*%
%FSLAX46Y46*%
G04 Gerber Fmt 4.6, Leading zero omitted, Abs format (unit mm)*
G04 Created by KiCad (PCBNEW 9.0.6) date 2026-01-26 21:47:50*
%MOMM*%
%LPD*%
G01*
G04 APERTURE LIST*
G04 Aperture macros list*
%AMRoundRect*
0 Rectangle with rounded corners*
0 $1 Rounding radius*
0 $2 $3 $4 $5 $6 $7 $8 $9 X,Y pos of 4 corners*
0 Add a 4 corners polygon primitive as box body*
4,1,4,$2,$3,$4,$5,$6,$7,$8,$9,$2,$3,0*
0 Add four circle primitives for the rounded corners*
1,1,$1+$1,$2,$3*
1,1,$1+$1,$4,$5*
1,1,$1+$1,$6,$7*
1,1,$1+$1,$8,$9*
0 Add four rect primitives between the rounded corners*
20,1,$1+$1,$2,$3,$4,$5,0*
20,1,$1+$1,$4,$5,$6,$7,0*
20,1,$1+$1,$6,$7,$8,$9,0*
20,1,$1+$1,$8,$9,$2,$3,0*%
G04 Aperture macros list end*
%TA.AperFunction,SMDPad,CuDef*%
%ADD10RoundRect,0.152400X0.609600X-1.063600X0.609600X1.063600X-0.609600X1.063600X-0.609600X-1.063600X0*%
%TD*%
%TA.AperFunction,ComponentPad*%
%ADD11C,1.524000*%
%TD*%
%TA.AperFunction,SMDPad,CuDef*%
%ADD12RoundRect,0.152400X-0.609600X1.063600X-0.609600X-1.063600X0.609600X-1.063600X0.609600X1.063600X0*%
%TD*%
%TA.AperFunction,ComponentPad*%
%ADD13C,2.200000*%
%TD*%
%TA.AperFunction,SMDPad,CuDef*%
%ADD14R,0.850000X1.600000*%
%TD*%
%TA.AperFunction,ComponentPad*%
%ADD15C,1.500000*%
%TD*%
%TA.AperFunction,ComponentPad*%
%ADD16R,2.000000X2.000000*%
%TD*%
%TA.AperFunction,ComponentPad*%
%ADD17C,2.000000*%
%TD*%
%TA.AperFunction,ComponentPad*%
%ADD18R,3.200000X2.000000*%
%TD*%
%TA.AperFunction,ComponentPad*%
%ADD19R,1.700000X1.700000*%
%TD*%
%TA.AperFunction,ComponentPad*%
%ADD20O,1.700000X1.700000*%
%TD*%
%TA.AperFunction,ViaPad*%
%ADD21C,0.600000*%
%TD*%
%TA.AperFunction,Conductor*%
%ADD22C,0.200000*%
%TD*%
G04 APERTURE END LIST*
D10*
%TO.P,U1,1,GPIO26/ADC0/A0*%
%TO.N,Net-(D1-DIN)*%
X152171500Y-60295000D03*
D11*
X152171500Y-61130000D03*
D10*
%TO.P,U1,2,GPIO27/ADC1/A1*%
%TO.N,Net-(U1-GPIO27{slash}ADC1{slash}A1)*%
X149631500Y-60295000D03*
D11*
X149631500Y-61130000D03*
D10*
%TO.P,U1,3,GPIO28/ADC2/A2*%
%TO.N,Net-(U1-GPIO28{slash}ADC2{slash}A2)*%
X147091500Y-60295000D03*
D11*
X147091500Y-61130000D03*
D10*
%TO.P,U1,4,GPIO29/ADC3/A3*%
%TO.N,unconnected-(U1-GPIO29{slash}ADC3{slash}A3-Pad4)*%
X144551500Y-60295000D03*
D11*
X144551500Y-61130000D03*
D10*
%TO.P,U1,5,GPIO6/SDA*%
%TO.N,Net-(U1-GPIO6{slash}SDA)*%
X142011500Y-60295000D03*
D11*
X142011500Y-61130000D03*
D10*
%TO.P,U1,6,GPIO7/SCL*%
%TO.N,Net-(U1-GPIO7{slash}SCL)*%
X139471500Y-60295000D03*
D11*
X139471500Y-61130000D03*
D10*
%TO.P,U1,7,GPIO0/TX*%
%TO.N,unconnected-(U1-GPIO0{slash}TX-Pad7)*%
X136931500Y-60295000D03*
D11*
X136931500Y-61130000D03*
%TO.P,U1,8,GPIO1/RX*%
%TO.N,Net-(U1-GPIO1{slash}RX)*%
X136931500Y-76370000D03*
D12*
X136931500Y-77205000D03*
D11*
%TO.P,U1,9,GPIO2/SCK*%
%TO.N,Net-(U1-GPIO2{slash}SCK)*%
X139471500Y-76370000D03*
D12*
X139471500Y-77205000D03*
D11*
%TO.P,U1,10,GPIO4/MISO*%
%TO.N,Net-(U1-GPIO4{slash}MISO)*%
X142011500Y-76370000D03*
D12*
X142011500Y-77205000D03*
D11*
%TO.P,U1,11,GPIO3/MOSI*%
%TO.N,Net-(U1-GPIO3{slash}MOSI)*%
X144551500Y-76370000D03*
D12*
X144551500Y-77205000D03*
D11*
%TO.P,U1,12,3V3*%
%TO.N,+3.3V*%
X147091500Y-76370000D03*
D12*
X147091500Y-77205000D03*
D11*
%TO.P,U1,13,GND*%
%TO.N,GND*%
X149631500Y-76370000D03*
D12*
X149631500Y-77205000D03*
D11*
%TO.P,U1,14,VBUS*%
%TO.N,+5V*%
X152171500Y-76370000D03*
D12*
X152171500Y-77205000D03*
%TD*%
D13*
%TO.P,SW4,1,1*%
%TO.N,GND*%
X143033750Y-85407500D03*
%TO.P,SW4,2,2*%
%TO.N,Net-(U1-GPIO3{slash}MOSI)*%
X136683750Y-87947500D03*
%TD*%
D14*
%TO.P,D3,1,DOUT*%
%TO.N,Net-(D3-DOUT)*%
X112240000Y-62600000D03*
%TO.P,D3,2,VSS*%
%TO.N,GND*%
X113990000Y-62600000D03*
%TO.P,D3,3,DIN*%
%TO.N,Net-(D2-DOUT)*%
X113990000Y-59100000D03*
%TO.P,D3,4,VDD*%
%TO.N,+5V*%
X112240000Y-59100000D03*
%TD*%
D15*
%TO.P,SW5,*%
%TO.N,*%
X89890000Y-65440000D03*
X89890000Y-70440000D03*
D16*
%TO.P,SW5,A,A*%
%TO.N,Net-(U1-GPIO27{slash}ADC1{slash}A1)*%
X75390000Y-65440000D03*
D17*
%TO.P,SW5,B,B*%
%TO.N,Net-(U1-GPIO28{slash}ADC2{slash}A2)*%
X75390000Y-70440000D03*
%TO.P,SW5,C,C*%
%TO.N,GND*%
X75390000Y-67940000D03*
D18*
%TO.P,SW5,MP*%
%TO.N,N/C*%
X82890000Y-62340000D03*
X82890000Y-73540000D03*
%TD*%
D14*
%TO.P,D1,1,DOUT*%
%TO.N,Net-(D1-DOUT)*%
X102000000Y-62600000D03*
%TO.P,D1,2,VSS*%
%TO.N,GND*%
X103750000Y-62600000D03*
%TO.P,D1,3,DIN*%
%TO.N,Net-(D1-DIN)*%
X103750000Y-59100000D03*
%TO.P,D1,4,VDD*%
%TO.N,+5V*%
X102000000Y-59100000D03*
%TD*%
D13*
%TO.P,SW3,1,1*%
%TO.N,GND*%
X123983750Y-85407500D03*
%TO.P,SW3,2,2*%
%TO.N,Net-(U1-GPIO4{slash}MISO)*%
X117633750Y-87947500D03*
%TD*%
%TO.P,SW1,1,1*%
%TO.N,GND*%
X85883750Y-85407500D03*
%TO.P,SW1,2,2*%
%TO.N,Net-(U1-GPIO1{slash}RX)*%
X79533750Y-87947500D03*
%TD*%
D14*
%TO.P,D4,1,DOUT*%
%TO.N,unconnected-(D4-DOUT-Pad1)*%
X117360000Y-62600000D03*
%TO.P,D4,2,VSS*%
%TO.N,GND*%
X119110000Y-62600000D03*
%TO.P,D4,3,DIN*%
%TO.N,Net-(D3-DOUT)*%
X119110000Y-59100000D03*
%TO.P,D4,4,VDD*%
%TO.N,+5V*%
X117360000Y-59100000D03*
%TD*%
%TO.P,D2,1,DOUT*%
%TO.N,Net-(D2-DOUT)*%
X107120000Y-62600000D03*
%TO.P,D2,2,VSS*%
%TO.N,GND*%
X108870000Y-62600000D03*
%TO.P,D2,3,DIN*%
%TO.N,Net-(D1-DOUT)*%
X108870000Y-59100000D03*
%TO.P,D2,4,VDD*%
%TO.N,+5V*%
X107120000Y-59100000D03*
%TD*%
D19*
%TO.P,U2,1,VCC*%
%TO.N,GND*%
X129533750Y-67742500D03*
D20*
%TO.P,U2,2,GND*%
%TO.N,+3.3V*%
X129533750Y-70282500D03*
%TO.P,U2,3,SDA*%
%TO.N,Net-(U1-GPIO7{slash}SCL)*%
X129533750Y-72822500D03*
%TO.P,U2,4,SCL*%
%TO.N,Net-(U1-GPIO6{slash}SDA)*%
X129533750Y-75362500D03*
%TD*%
D13*
%TO.P,SW2,1,1*%
%TO.N,GND*%
X104933750Y-85407500D03*
%TO.P,SW2,2,2*%
%TO.N,Net-(U1-GPIO2{slash}SCK)*%
X98583750Y-87947500D03*
%TD*%
D21*
%TO.N,Net-(U1-GPIO28{slash}ADC2{slash}A2)*%
X132000000Y-77900000D03*
X136760000Y-71400000D03*
%TD*%
D22*
%TO.N,Net-(D1-DOUT)*%
X104399000Y-60201000D02*
X107769000Y-60201000D01*
X102000000Y-62600000D02*
X104399000Y-60201000D01*
X107769000Y-60201000D02*
X108870000Y-59100000D01*
%TO.N,Net-(D1-DIN)*%
X100621000Y-56419000D02*
X148266630Y-56419000D01*
X103750000Y-59100000D02*
X102649000Y-60201000D01*
X151910000Y-60062370D02*
X151910000Y-61140000D01*
X98910000Y-58130000D02*
X100621000Y-56419000D01*
X100281000Y-60201000D02*
X98910000Y-58830000D01*
X102649000Y-60201000D02*
X100281000Y-60201000D01*
X98910000Y-58830000D02*
X98910000Y-58130000D01*
X148266630Y-56419000D02*
X151910000Y-60062370D01*
%TO.N,GND*%
X121851250Y-62600000D02*
X126993750Y-67742500D01*
X143033750Y-85407500D02*
X149370000Y-79071250D01*
X141004000Y-67742500D02*
X149631500Y-76370000D01*
X129533750Y-67742500D02*
X141004000Y-67742500D01*
X103750000Y-62600000D02*
X104851000Y-63701000D01*
X109971000Y-63701000D02*
X112889000Y-63701000D01*
X149370000Y-79071250D02*
X149370000Y-76380000D01*
X115091000Y-63701000D02*
X118009000Y-63701000D01*
X107769000Y-63701000D02*
X108870000Y-62600000D01*
X104851000Y-63701000D02*
X107769000Y-63701000D01*
X119110000Y-62600000D02*
X121851250Y-62600000D01*
X113990000Y-62600000D02*
X115091000Y-63701000D01*
X118009000Y-63701000D02*
X119110000Y-62600000D01*
X126993750Y-67742500D02*
X129533750Y-67742500D01*
X108870000Y-62600000D02*
X109971000Y-63701000D01*
X112889000Y-63701000D02*
X113990000Y-62600000D01*
%TO.N,+5V*%
X102000000Y-59100000D02*
X103101000Y-57999000D01*
X115080000Y-56820000D02*
X117360000Y-59100000D01*
X136000000Y-65000000D02*
X146000000Y-65000000D01*
X114520000Y-56820000D02*
X115080000Y-56820000D01*
X106019000Y-57999000D02*
X107120000Y-59100000D01*
X103101000Y-57999000D02*
X106019000Y-57999000D01*
X117360000Y-59100000D02*
X118461000Y-57999000D01*
X108260000Y-57960000D02*
X111100000Y-57960000D01*
X146000000Y-65000000D02*
X152171500Y-71171500D01*
X152171500Y-71171500D02*
X152171500Y-76370000D01*
X111100000Y-57960000D02*
X112240000Y-59100000D01*
X128999000Y-57999000D02*
X136000000Y-65000000D01*
X107120000Y-59100000D02*
X108260000Y-57960000D01*
X118461000Y-57999000D02*
X128999000Y-57999000D01*
X112240000Y-59100000D02*
X114520000Y-56820000D01*
%TO.N,Net-(D2-DOUT)*%
X111992000Y-61098000D02*
X113990000Y-59100000D01*
X107120000Y-62600000D02*
X108622000Y-61098000D01*
X108622000Y-61098000D02*
X111992000Y-61098000D01*
%TO.N,Net-(D3-DOUT)*%
X119110000Y-59100000D02*
X116711000Y-61499000D01*
X116711000Y-61499000D02*
X113341000Y-61499000D01*
X113341000Y-61499000D02*
X112240000Y-62600000D01*
%TO.N,Net-(U1-GPIO1{slash}RX)*%
X81780000Y-79580000D02*
X133570000Y-79580000D01*
X133570000Y-79580000D02*
X133820000Y-79330000D01*
X133820000Y-79230000D02*
X136670000Y-76380000D01*
X79533750Y-87947500D02*
X79533750Y-81826250D01*
X133820000Y-79330000D02*
X133820000Y-79230000D01*
X79533750Y-81826250D02*
X81780000Y-79580000D01*
%TO.N,Net-(U1-GPIO2{slash}SCK)*%
X98583750Y-83336250D02*
X101590000Y-80330000D01*
X98583750Y-87947500D02*
X98583750Y-83336250D01*
X139210000Y-77457630D02*
X139210000Y-76380000D01*
X101590000Y-80330000D02*
X136337630Y-80330000D01*
X136337630Y-80330000D02*
X139210000Y-77457630D01*
%TO.N,Net-(U1-GPIO4{slash}MISO)*%
X141750000Y-77457630D02*
X141750000Y-76380000D01*
X117633750Y-87947500D02*
X131260130Y-87947500D01*
X131260130Y-87947500D02*
X141750000Y-77457630D01*
%TO.N,Net-(U1-GPIO3{slash}MOSI)*%
X136683750Y-87947500D02*
X144290000Y-80341250D01*
X144290000Y-80341250D02*
X144290000Y-76380000D01*
%TO.N,Net-(U1-GPIO28{slash}ADC2{slash}A2)*%
X136760000Y-73140000D02*
X136760000Y-71400000D01*
X132000000Y-77900000D02*
X136760000Y-73140000D01*
%TO.N,+3.3V*%
X129533750Y-70282500D02*
X141004000Y-70282500D01*
X141004000Y-70282500D02*
X147091500Y-76370000D01*
%TD*%
M02*
