%TF.GenerationSoftware,KiCad,Pcbnew,9.0.6*%
%TF.CreationDate,2026-01-26T21:47:51+08:00*%
%TF.ProjectId,Hackpad,4861636b-7061-4642-9e6b-696361645f70,rev?*%
%TF.SameCoordinates,Original*%
%TF.FileFunction,Legend,Top*%
%TF.FilePolarity,Positive*%
%FSLAX46Y46*%
G04 Gerber Fmt 4.6, Leading zero omitted, Abs format (unit mm)*
G04 Created by KiCad (PCBNEW 9.0.6) date 2026-01-26 21:47:51*
%MOMM*%
%LPD*%
G01*
G04 APERTURE LIST*
%ADD10C,0.100000*%
%ADD11C,0.101600*%
%ADD12C,0.150000*%
%ADD13C,0.127000*%
%ADD14C,0.504000*%
%ADD15C,0.120000*%
%ADD16C,0.040000*%
G04 APERTURE END LIST*
D10*
X153737524Y-65208646D02*
X152737524Y-65875312D01*
X153737524Y-65875312D02*
X152737524Y-65208646D01*
X152737524Y-66256265D02*
X153737524Y-66256265D01*
X153023239Y-66684836D02*
X153023239Y-67161026D01*
X152737524Y-66589598D02*
X153737524Y-66922931D01*
X153737524Y-66922931D02*
X152737524Y-67256264D01*
X153737524Y-67780074D02*
X153737524Y-67970550D01*
X153737524Y-67970550D02*
X153689905Y-68065788D01*
X153689905Y-68065788D02*
X153594667Y-68161026D01*
X153594667Y-68161026D02*
X153404191Y-68208645D01*
X153404191Y-68208645D02*
X153070858Y-68208645D01*
X153070858Y-68208645D02*
X152880382Y-68161026D01*
X152880382Y-68161026D02*
X152785144Y-68065788D01*
X152785144Y-68065788D02*
X152737524Y-67970550D01*
X152737524Y-67970550D02*
X152737524Y-67780074D01*
X152737524Y-67780074D02*
X152785144Y-67684836D01*
X152785144Y-67684836D02*
X152880382Y-67589598D01*
X152880382Y-67589598D02*
X153070858Y-67541979D01*
X153070858Y-67541979D02*
X153404191Y-67541979D01*
X153404191Y-67541979D02*
X153594667Y-67589598D01*
X153594667Y-67589598D02*
X153689905Y-67684836D01*
X153689905Y-67684836D02*
X153737524Y-67780074D01*
X151127580Y-65303884D02*
X152127580Y-65303884D01*
X151651390Y-65303884D02*
X151651390Y-65875312D01*
X151127580Y-65875312D02*
X152127580Y-65875312D01*
X151651390Y-66351503D02*
X151651390Y-66684836D01*
X151127580Y-66827693D02*
X151127580Y-66351503D01*
X151127580Y-66351503D02*
X152127580Y-66351503D01*
X152127580Y-66351503D02*
X152127580Y-66827693D01*
X151127580Y-67827693D02*
X151603771Y-67494360D01*
X151127580Y-67256265D02*
X152127580Y-67256265D01*
X152127580Y-67256265D02*
X152127580Y-67637217D01*
X152127580Y-67637217D02*
X152079961Y-67732455D01*
X152079961Y-67732455D02*
X152032342Y-67780074D01*
X152032342Y-67780074D02*
X151937104Y-67827693D01*
X151937104Y-67827693D02*
X151794247Y-67827693D01*
X151794247Y-67827693D02*
X151699009Y-67780074D01*
X151699009Y-67780074D02*
X151651390Y-67732455D01*
X151651390Y-67732455D02*
X151603771Y-67637217D01*
X151603771Y-67637217D02*
X151603771Y-67256265D01*
X151651390Y-68256265D02*
X151651390Y-68589598D01*
X151127580Y-68732455D02*
X151127580Y-68256265D01*
X151127580Y-68256265D02*
X152127580Y-68256265D01*
X152127580Y-68256265D02*
X152127580Y-68732455D01*
X151222819Y-69161027D02*
X151175200Y-69208646D01*
X151175200Y-69208646D02*
X151127580Y-69161027D01*
X151127580Y-69161027D02*
X151175200Y-69113408D01*
X151175200Y-69113408D02*
X151222819Y-69161027D01*
X151222819Y-69161027D02*
X151127580Y-69161027D01*
X151508533Y-69161027D02*
X152079961Y-69113408D01*
X152079961Y-69113408D02*
X152127580Y-69161027D01*
X152127580Y-69161027D02*
X152079961Y-69208646D01*
X152079961Y-69208646D02*
X151508533Y-69161027D01*
X151508533Y-69161027D02*
X152127580Y-69161027D01*
X104494360Y-68872419D02*
X104684836Y-68872419D01*
X104684836Y-68872419D02*
X104780074Y-68920038D01*
X104780074Y-68920038D02*
X104875312Y-69015276D01*
X104875312Y-69015276D02*
X104922931Y-69205752D01*
X104922931Y-69205752D02*
X104922931Y-69539085D01*
X104922931Y-69539085D02*
X104875312Y-69729561D01*
X104875312Y-69729561D02*
X104780074Y-69824800D01*
X104780074Y-69824800D02*
X104684836Y-69872419D01*
X104684836Y-69872419D02*
X104494360Y-69872419D01*
X104494360Y-69872419D02*
X104399122Y-69824800D01*
X104399122Y-69824800D02*
X104303884Y-69729561D01*
X104303884Y-69729561D02*
X104256265Y-69539085D01*
X104256265Y-69539085D02*
X104256265Y-69205752D01*
X104256265Y-69205752D02*
X104303884Y-69015276D01*
X104303884Y-69015276D02*
X104399122Y-68920038D01*
X104399122Y-68920038D02*
X104494360Y-68872419D01*
X105827693Y-69872419D02*
X105351503Y-69872419D01*
X105351503Y-69872419D02*
X105351503Y-68872419D01*
X106161027Y-69348609D02*
X106494360Y-69348609D01*
X106637217Y-69872419D02*
X106161027Y-69872419D01*
X106161027Y-69872419D02*
X106161027Y-68872419D01*
X106161027Y-68872419D02*
X106637217Y-68872419D01*
X107065789Y-69872419D02*
X107065789Y-68872419D01*
X107065789Y-68872419D02*
X107303884Y-68872419D01*
X107303884Y-68872419D02*
X107446741Y-68920038D01*
X107446741Y-68920038D02*
X107541979Y-69015276D01*
X107541979Y-69015276D02*
X107589598Y-69110514D01*
X107589598Y-69110514D02*
X107637217Y-69300990D01*
X107637217Y-69300990D02*
X107637217Y-69443847D01*
X107637217Y-69443847D02*
X107589598Y-69634323D01*
X107589598Y-69634323D02*
X107541979Y-69729561D01*
X107541979Y-69729561D02*
X107446741Y-69824800D01*
X107446741Y-69824800D02*
X107303884Y-69872419D01*
X107303884Y-69872419D02*
X107065789Y-69872419D01*
X108827694Y-69872419D02*
X108827694Y-68872419D01*
X108827694Y-69348609D02*
X109399122Y-69348609D01*
X109399122Y-69872419D02*
X109399122Y-68872419D01*
X109875313Y-69348609D02*
X110208646Y-69348609D01*
X110351503Y-69872419D02*
X109875313Y-69872419D01*
X109875313Y-69872419D02*
X109875313Y-68872419D01*
X109875313Y-68872419D02*
X110351503Y-68872419D01*
X111351503Y-69872419D02*
X111018170Y-69396228D01*
X110780075Y-69872419D02*
X110780075Y-68872419D01*
X110780075Y-68872419D02*
X111161027Y-68872419D01*
X111161027Y-68872419D02*
X111256265Y-68920038D01*
X111256265Y-68920038D02*
X111303884Y-68967657D01*
X111303884Y-68967657D02*
X111351503Y-69062895D01*
X111351503Y-69062895D02*
X111351503Y-69205752D01*
X111351503Y-69205752D02*
X111303884Y-69300990D01*
X111303884Y-69300990D02*
X111256265Y-69348609D01*
X111256265Y-69348609D02*
X111161027Y-69396228D01*
X111161027Y-69396228D02*
X110780075Y-69396228D01*
X111780075Y-69348609D02*
X112113408Y-69348609D01*
X112256265Y-69872419D02*
X111780075Y-69872419D01*
X111780075Y-69872419D02*
X111780075Y-68872419D01*
X111780075Y-68872419D02*
X112256265Y-68872419D01*
X112684837Y-69777180D02*
X112732456Y-69824800D01*
X112732456Y-69824800D02*
X112684837Y-69872419D01*
X112684837Y-69872419D02*
X112637218Y-69824800D01*
X112637218Y-69824800D02*
X112684837Y-69777180D01*
X112684837Y-69777180D02*
X112684837Y-69872419D01*
X112684837Y-69491466D02*
X112637218Y-68920038D01*
X112637218Y-68920038D02*
X112684837Y-68872419D01*
X112684837Y-68872419D02*
X112732456Y-68920038D01*
X112732456Y-68920038D02*
X112684837Y-69491466D01*
X112684837Y-69491466D02*
X112684837Y-68872419D01*
D11*
X156898020Y-59766190D02*
X156383973Y-59766190D01*
X156383973Y-59766190D02*
X156323497Y-59796428D01*
X156323497Y-59796428D02*
X156293259Y-59826666D01*
X156293259Y-59826666D02*
X156263020Y-59887142D01*
X156263020Y-59887142D02*
X156263020Y-60008095D01*
X156263020Y-60008095D02*
X156293259Y-60068571D01*
X156293259Y-60068571D02*
X156323497Y-60098809D01*
X156323497Y-60098809D02*
X156383973Y-60129047D01*
X156383973Y-60129047D02*
X156898020Y-60129047D01*
X156263020Y-60764047D02*
X156263020Y-60401190D01*
X156263020Y-60582618D02*
X156898020Y-60582618D01*
X156898020Y-60582618D02*
X156807306Y-60522142D01*
X156807306Y-60522142D02*
X156746830Y-60461666D01*
X156746830Y-60461666D02*
X156716592Y-60401190D01*
D12*
X139160417Y-83020700D02*
X139303274Y-83068319D01*
X139303274Y-83068319D02*
X139541369Y-83068319D01*
X139541369Y-83068319D02*
X139636607Y-83020700D01*
X139636607Y-83020700D02*
X139684226Y-82973080D01*
X139684226Y-82973080D02*
X139731845Y-82877842D01*
X139731845Y-82877842D02*
X139731845Y-82782604D01*
X139731845Y-82782604D02*
X139684226Y-82687366D01*
X139684226Y-82687366D02*
X139636607Y-82639747D01*
X139636607Y-82639747D02*
X139541369Y-82592128D01*
X139541369Y-82592128D02*
X139350893Y-82544509D01*
X139350893Y-82544509D02*
X139255655Y-82496890D01*
X139255655Y-82496890D02*
X139208036Y-82449271D01*
X139208036Y-82449271D02*
X139160417Y-82354033D01*
X139160417Y-82354033D02*
X139160417Y-82258795D01*
X139160417Y-82258795D02*
X139208036Y-82163557D01*
X139208036Y-82163557D02*
X139255655Y-82115938D01*
X139255655Y-82115938D02*
X139350893Y-82068319D01*
X139350893Y-82068319D02*
X139588988Y-82068319D01*
X139588988Y-82068319D02*
X139731845Y-82115938D01*
X140065179Y-82068319D02*
X140303274Y-83068319D01*
X140303274Y-83068319D02*
X140493750Y-82354033D01*
X140493750Y-82354033D02*
X140684226Y-83068319D01*
X140684226Y-83068319D02*
X140922322Y-82068319D01*
X141731845Y-82401652D02*
X141731845Y-83068319D01*
X141493750Y-82020700D02*
X141255655Y-82734985D01*
X141255655Y-82734985D02*
X141874702Y-82734985D01*
X110819819Y-61588094D02*
X109819819Y-61588094D01*
X109819819Y-61588094D02*
X109819819Y-61349999D01*
X109819819Y-61349999D02*
X109867438Y-61207142D01*
X109867438Y-61207142D02*
X109962676Y-61111904D01*
X109962676Y-61111904D02*
X110057914Y-61064285D01*
X110057914Y-61064285D02*
X110248390Y-61016666D01*
X110248390Y-61016666D02*
X110391247Y-61016666D01*
X110391247Y-61016666D02*
X110581723Y-61064285D01*
X110581723Y-61064285D02*
X110676961Y-61111904D01*
X110676961Y-61111904D02*
X110772200Y-61207142D01*
X110772200Y-61207142D02*
X110819819Y-61349999D01*
X110819819Y-61349999D02*
X110819819Y-61588094D01*
X109819819Y-60683332D02*
X109819819Y-60064285D01*
X109819819Y-60064285D02*
X110200771Y-60397618D01*
X110200771Y-60397618D02*
X110200771Y-60254761D01*
X110200771Y-60254761D02*
X110248390Y-60159523D01*
X110248390Y-60159523D02*
X110296009Y-60111904D01*
X110296009Y-60111904D02*
X110391247Y-60064285D01*
X110391247Y-60064285D02*
X110629342Y-60064285D01*
X110629342Y-60064285D02*
X110724580Y-60111904D01*
X110724580Y-60111904D02*
X110772200Y-60159523D01*
X110772200Y-60159523D02*
X110819819Y-60254761D01*
X110819819Y-60254761D02*
X110819819Y-60540475D01*
X110819819Y-60540475D02*
X110772200Y-60635713D01*
X110772200Y-60635713D02*
X110724580Y-60683332D01*
X112602295Y-63821428D02*
X112602295Y-64278571D01*
X112602295Y-64049999D02*
X111802295Y-64049999D01*
X111802295Y-64049999D02*
X111916580Y-64126190D01*
X111916580Y-64126190D02*
X111992771Y-64202380D01*
X111992771Y-64202380D02*
X112030866Y-64278571D01*
X76856667Y-61147200D02*
X76999524Y-61194819D01*
X76999524Y-61194819D02*
X77237619Y-61194819D01*
X77237619Y-61194819D02*
X77332857Y-61147200D01*
X77332857Y-61147200D02*
X77380476Y-61099580D01*
X77380476Y-61099580D02*
X77428095Y-61004342D01*
X77428095Y-61004342D02*
X77428095Y-60909104D01*
X77428095Y-60909104D02*
X77380476Y-60813866D01*
X77380476Y-60813866D02*
X77332857Y-60766247D01*
X77332857Y-60766247D02*
X77237619Y-60718628D01*
X77237619Y-60718628D02*
X77047143Y-60671009D01*
X77047143Y-60671009D02*
X76951905Y-60623390D01*
X76951905Y-60623390D02*
X76904286Y-60575771D01*
X76904286Y-60575771D02*
X76856667Y-60480533D01*
X76856667Y-60480533D02*
X76856667Y-60385295D01*
X76856667Y-60385295D02*
X76904286Y-60290057D01*
X76904286Y-60290057D02*
X76951905Y-60242438D01*
X76951905Y-60242438D02*
X77047143Y-60194819D01*
X77047143Y-60194819D02*
X77285238Y-60194819D01*
X77285238Y-60194819D02*
X77428095Y-60242438D01*
X77761429Y-60194819D02*
X77999524Y-61194819D01*
X77999524Y-61194819D02*
X78190000Y-60480533D01*
X78190000Y-60480533D02*
X78380476Y-61194819D01*
X78380476Y-61194819D02*
X78618572Y-60194819D01*
X79475714Y-60194819D02*
X78999524Y-60194819D01*
X78999524Y-60194819D02*
X78951905Y-60671009D01*
X78951905Y-60671009D02*
X78999524Y-60623390D01*
X78999524Y-60623390D02*
X79094762Y-60575771D01*
X79094762Y-60575771D02*
X79332857Y-60575771D01*
X79332857Y-60575771D02*
X79428095Y-60623390D01*
X79428095Y-60623390D02*
X79475714Y-60671009D01*
X79475714Y-60671009D02*
X79523333Y-60766247D01*
X79523333Y-60766247D02*
X79523333Y-61004342D01*
X79523333Y-61004342D02*
X79475714Y-61099580D01*
X79475714Y-61099580D02*
X79428095Y-61147200D01*
X79428095Y-61147200D02*
X79332857Y-61194819D01*
X79332857Y-61194819D02*
X79094762Y-61194819D01*
X79094762Y-61194819D02*
X78999524Y-61147200D01*
X78999524Y-61147200D02*
X78951905Y-61099580D01*
X100579819Y-61588094D02*
X99579819Y-61588094D01*
X99579819Y-61588094D02*
X99579819Y-61349999D01*
X99579819Y-61349999D02*
X99627438Y-61207142D01*
X99627438Y-61207142D02*
X99722676Y-61111904D01*
X99722676Y-61111904D02*
X99817914Y-61064285D01*
X99817914Y-61064285D02*
X100008390Y-61016666D01*
X100008390Y-61016666D02*
X100151247Y-61016666D01*
X100151247Y-61016666D02*
X100341723Y-61064285D01*
X100341723Y-61064285D02*
X100436961Y-61111904D01*
X100436961Y-61111904D02*
X100532200Y-61207142D01*
X100532200Y-61207142D02*
X100579819Y-61349999D01*
X100579819Y-61349999D02*
X100579819Y-61588094D01*
X100579819Y-60064285D02*
X100579819Y-60635713D01*
X100579819Y-60349999D02*
X99579819Y-60349999D01*
X99579819Y-60349999D02*
X99722676Y-60445237D01*
X99722676Y-60445237D02*
X99817914Y-60540475D01*
X99817914Y-60540475D02*
X99865533Y-60635713D01*
X102362295Y-63821428D02*
X102362295Y-64278571D01*
X102362295Y-64049999D02*
X101562295Y-64049999D01*
X101562295Y-64049999D02*
X101676580Y-64126190D01*
X101676580Y-64126190D02*
X101752771Y-64202380D01*
X101752771Y-64202380D02*
X101790866Y-64278571D01*
X120110417Y-83020700D02*
X120253274Y-83068319D01*
X120253274Y-83068319D02*
X120491369Y-83068319D01*
X120491369Y-83068319D02*
X120586607Y-83020700D01*
X120586607Y-83020700D02*
X120634226Y-82973080D01*
X120634226Y-82973080D02*
X120681845Y-82877842D01*
X120681845Y-82877842D02*
X120681845Y-82782604D01*
X120681845Y-82782604D02*
X120634226Y-82687366D01*
X120634226Y-82687366D02*
X120586607Y-82639747D01*
X120586607Y-82639747D02*
X120491369Y-82592128D01*
X120491369Y-82592128D02*
X120300893Y-82544509D01*
X120300893Y-82544509D02*
X120205655Y-82496890D01*
X120205655Y-82496890D02*
X120158036Y-82449271D01*
X120158036Y-82449271D02*
X120110417Y-82354033D01*
X120110417Y-82354033D02*
X120110417Y-82258795D01*
X120110417Y-82258795D02*
X120158036Y-82163557D01*
X120158036Y-82163557D02*
X120205655Y-82115938D01*
X120205655Y-82115938D02*
X120300893Y-82068319D01*
X120300893Y-82068319D02*
X120538988Y-82068319D01*
X120538988Y-82068319D02*
X120681845Y-82115938D01*
X121015179Y-82068319D02*
X121253274Y-83068319D01*
X121253274Y-83068319D02*
X121443750Y-82354033D01*
X121443750Y-82354033D02*
X121634226Y-83068319D01*
X121634226Y-83068319D02*
X121872322Y-82068319D01*
X122158036Y-82068319D02*
X122777083Y-82068319D01*
X122777083Y-82068319D02*
X122443750Y-82449271D01*
X122443750Y-82449271D02*
X122586607Y-82449271D01*
X122586607Y-82449271D02*
X122681845Y-82496890D01*
X122681845Y-82496890D02*
X122729464Y-82544509D01*
X122729464Y-82544509D02*
X122777083Y-82639747D01*
X122777083Y-82639747D02*
X122777083Y-82877842D01*
X122777083Y-82877842D02*
X122729464Y-82973080D01*
X122729464Y-82973080D02*
X122681845Y-83020700D01*
X122681845Y-83020700D02*
X122586607Y-83068319D01*
X122586607Y-83068319D02*
X122300893Y-83068319D01*
X122300893Y-83068319D02*
X122205655Y-83020700D01*
X122205655Y-83020700D02*
X122158036Y-82973080D01*
X82010417Y-83020700D02*
X82153274Y-83068319D01*
X82153274Y-83068319D02*
X82391369Y-83068319D01*
X82391369Y-83068319D02*
X82486607Y-83020700D01*
X82486607Y-83020700D02*
X82534226Y-82973080D01*
X82534226Y-82973080D02*
X82581845Y-82877842D01*
X82581845Y-82877842D02*
X82581845Y-82782604D01*
X82581845Y-82782604D02*
X82534226Y-82687366D01*
X82534226Y-82687366D02*
X82486607Y-82639747D01*
X82486607Y-82639747D02*
X82391369Y-82592128D01*
X82391369Y-82592128D02*
X82200893Y-82544509D01*
X82200893Y-82544509D02*
X82105655Y-82496890D01*
X82105655Y-82496890D02*
X82058036Y-82449271D01*
X82058036Y-82449271D02*
X82010417Y-82354033D01*
X82010417Y-82354033D02*
X82010417Y-82258795D01*
X82010417Y-82258795D02*
X82058036Y-82163557D01*
X82058036Y-82163557D02*
X82105655Y-82115938D01*
X82105655Y-82115938D02*
X82200893Y-82068319D01*
X82200893Y-82068319D02*
X82438988Y-82068319D01*
X82438988Y-82068319D02*
X82581845Y-82115938D01*
X82915179Y-82068319D02*
X83153274Y-83068319D01*
X83153274Y-83068319D02*
X83343750Y-82354033D01*
X83343750Y-82354033D02*
X83534226Y-83068319D01*
X83534226Y-83068319D02*
X83772322Y-82068319D01*
X84677083Y-83068319D02*
X84105655Y-83068319D01*
X84391369Y-83068319D02*
X84391369Y-82068319D01*
X84391369Y-82068319D02*
X84296131Y-82211176D01*
X84296131Y-82211176D02*
X84200893Y-82306414D01*
X84200893Y-82306414D02*
X84105655Y-82354033D01*
X115939819Y-61588094D02*
X114939819Y-61588094D01*
X114939819Y-61588094D02*
X114939819Y-61349999D01*
X114939819Y-61349999D02*
X114987438Y-61207142D01*
X114987438Y-61207142D02*
X115082676Y-61111904D01*
X115082676Y-61111904D02*
X115177914Y-61064285D01*
X115177914Y-61064285D02*
X115368390Y-61016666D01*
X115368390Y-61016666D02*
X115511247Y-61016666D01*
X115511247Y-61016666D02*
X115701723Y-61064285D01*
X115701723Y-61064285D02*
X115796961Y-61111904D01*
X115796961Y-61111904D02*
X115892200Y-61207142D01*
X115892200Y-61207142D02*
X115939819Y-61349999D01*
X115939819Y-61349999D02*
X115939819Y-61588094D01*
X115273152Y-60159523D02*
X115939819Y-60159523D01*
X114892200Y-60397618D02*
X115606485Y-60635713D01*
X115606485Y-60635713D02*
X115606485Y-60016666D01*
X117722295Y-63821428D02*
X117722295Y-64278571D01*
X117722295Y-64049999D02*
X116922295Y-64049999D01*
X116922295Y-64049999D02*
X117036580Y-64126190D01*
X117036580Y-64126190D02*
X117112771Y-64202380D01*
X117112771Y-64202380D02*
X117150866Y-64278571D01*
X105699819Y-61588094D02*
X104699819Y-61588094D01*
X104699819Y-61588094D02*
X104699819Y-61349999D01*
X104699819Y-61349999D02*
X104747438Y-61207142D01*
X104747438Y-61207142D02*
X104842676Y-61111904D01*
X104842676Y-61111904D02*
X104937914Y-61064285D01*
X104937914Y-61064285D02*
X105128390Y-61016666D01*
X105128390Y-61016666D02*
X105271247Y-61016666D01*
X105271247Y-61016666D02*
X105461723Y-61064285D01*
X105461723Y-61064285D02*
X105556961Y-61111904D01*
X105556961Y-61111904D02*
X105652200Y-61207142D01*
X105652200Y-61207142D02*
X105699819Y-61349999D01*
X105699819Y-61349999D02*
X105699819Y-61588094D01*
X104795057Y-60635713D02*
X104747438Y-60588094D01*
X104747438Y-60588094D02*
X104699819Y-60492856D01*
X104699819Y-60492856D02*
X104699819Y-60254761D01*
X104699819Y-60254761D02*
X104747438Y-60159523D01*
X104747438Y-60159523D02*
X104795057Y-60111904D01*
X104795057Y-60111904D02*
X104890295Y-60064285D01*
X104890295Y-60064285D02*
X104985533Y-60064285D01*
X104985533Y-60064285D02*
X105128390Y-60111904D01*
X105128390Y-60111904D02*
X105699819Y-60683332D01*
X105699819Y-60683332D02*
X105699819Y-60064285D01*
X107482295Y-63821428D02*
X107482295Y-64278571D01*
X107482295Y-64049999D02*
X106682295Y-64049999D01*
X106682295Y-64049999D02*
X106796580Y-64126190D01*
X106796580Y-64126190D02*
X106872771Y-64202380D01*
X106872771Y-64202380D02*
X106910866Y-64278571D01*
X94388569Y-72224404D02*
X95198092Y-72224404D01*
X95198092Y-72224404D02*
X95293330Y-72176785D01*
X95293330Y-72176785D02*
X95340950Y-72129166D01*
X95340950Y-72129166D02*
X95388569Y-72033928D01*
X95388569Y-72033928D02*
X95388569Y-71843452D01*
X95388569Y-71843452D02*
X95340950Y-71748214D01*
X95340950Y-71748214D02*
X95293330Y-71700595D01*
X95293330Y-71700595D02*
X95198092Y-71652976D01*
X95198092Y-71652976D02*
X94388569Y-71652976D01*
X94483807Y-71224404D02*
X94436188Y-71176785D01*
X94436188Y-71176785D02*
X94388569Y-71081547D01*
X94388569Y-71081547D02*
X94388569Y-70843452D01*
X94388569Y-70843452D02*
X94436188Y-70748214D01*
X94436188Y-70748214D02*
X94483807Y-70700595D01*
X94483807Y-70700595D02*
X94579045Y-70652976D01*
X94579045Y-70652976D02*
X94674283Y-70652976D01*
X94674283Y-70652976D02*
X94817140Y-70700595D01*
X94817140Y-70700595D02*
X95388569Y-71272023D01*
X95388569Y-71272023D02*
X95388569Y-70652976D01*
X127837200Y-73715356D02*
X127872914Y-73608214D01*
X127872914Y-73608214D02*
X127872914Y-73429642D01*
X127872914Y-73429642D02*
X127837200Y-73358214D01*
X127837200Y-73358214D02*
X127801485Y-73322499D01*
X127801485Y-73322499D02*
X127730057Y-73286785D01*
X127730057Y-73286785D02*
X127658628Y-73286785D01*
X127658628Y-73286785D02*
X127587200Y-73322499D01*
X127587200Y-73322499D02*
X127551485Y-73358214D01*
X127551485Y-73358214D02*
X127515771Y-73429642D01*
X127515771Y-73429642D02*
X127480057Y-73572499D01*
X127480057Y-73572499D02*
X127444342Y-73643928D01*
X127444342Y-73643928D02*
X127408628Y-73679642D01*
X127408628Y-73679642D02*
X127337200Y-73715356D01*
X127337200Y-73715356D02*
X127265771Y-73715356D01*
X127265771Y-73715356D02*
X127194342Y-73679642D01*
X127194342Y-73679642D02*
X127158628Y-73643928D01*
X127158628Y-73643928D02*
X127122914Y-73572499D01*
X127122914Y-73572499D02*
X127122914Y-73393928D01*
X127122914Y-73393928D02*
X127158628Y-73286785D01*
X127801485Y-72536785D02*
X127837200Y-72572499D01*
X127837200Y-72572499D02*
X127872914Y-72679642D01*
X127872914Y-72679642D02*
X127872914Y-72751070D01*
X127872914Y-72751070D02*
X127837200Y-72858213D01*
X127837200Y-72858213D02*
X127765771Y-72929642D01*
X127765771Y-72929642D02*
X127694342Y-72965356D01*
X127694342Y-72965356D02*
X127551485Y-73001070D01*
X127551485Y-73001070D02*
X127444342Y-73001070D01*
X127444342Y-73001070D02*
X127301485Y-72965356D01*
X127301485Y-72965356D02*
X127230057Y-72929642D01*
X127230057Y-72929642D02*
X127158628Y-72858213D01*
X127158628Y-72858213D02*
X127122914Y-72751070D01*
X127122914Y-72751070D02*
X127122914Y-72679642D01*
X127122914Y-72679642D02*
X127158628Y-72572499D01*
X127158628Y-72572499D02*
X127194342Y-72536785D01*
X127872914Y-71858213D02*
X127872914Y-72215356D01*
X127872914Y-72215356D02*
X127122914Y-72215356D01*
X127837200Y-76273213D02*
X127872914Y-76166071D01*
X127872914Y-76166071D02*
X127872914Y-75987499D01*
X127872914Y-75987499D02*
X127837200Y-75916071D01*
X127837200Y-75916071D02*
X127801485Y-75880356D01*
X127801485Y-75880356D02*
X127730057Y-75844642D01*
X127730057Y-75844642D02*
X127658628Y-75844642D01*
X127658628Y-75844642D02*
X127587200Y-75880356D01*
X127587200Y-75880356D02*
X127551485Y-75916071D01*
X127551485Y-75916071D02*
X127515771Y-75987499D01*
X127515771Y-75987499D02*
X127480057Y-76130356D01*
X127480057Y-76130356D02*
X127444342Y-76201785D01*
X127444342Y-76201785D02*
X127408628Y-76237499D01*
X127408628Y-76237499D02*
X127337200Y-76273213D01*
X127337200Y-76273213D02*
X127265771Y-76273213D01*
X127265771Y-76273213D02*
X127194342Y-76237499D01*
X127194342Y-76237499D02*
X127158628Y-76201785D01*
X127158628Y-76201785D02*
X127122914Y-76130356D01*
X127122914Y-76130356D02*
X127122914Y-75951785D01*
X127122914Y-75951785D02*
X127158628Y-75844642D01*
X127872914Y-75523213D02*
X127122914Y-75523213D01*
X127122914Y-75523213D02*
X127122914Y-75344642D01*
X127122914Y-75344642D02*
X127158628Y-75237499D01*
X127158628Y-75237499D02*
X127230057Y-75166070D01*
X127230057Y-75166070D02*
X127301485Y-75130356D01*
X127301485Y-75130356D02*
X127444342Y-75094642D01*
X127444342Y-75094642D02*
X127551485Y-75094642D01*
X127551485Y-75094642D02*
X127694342Y-75130356D01*
X127694342Y-75130356D02*
X127765771Y-75166070D01*
X127765771Y-75166070D02*
X127837200Y-75237499D01*
X127837200Y-75237499D02*
X127872914Y-75344642D01*
X127872914Y-75344642D02*
X127872914Y-75523213D01*
X127658628Y-74808927D02*
X127658628Y-74451785D01*
X127872914Y-74880356D02*
X127122914Y-74630356D01*
X127122914Y-74630356D02*
X127872914Y-74380356D01*
X127122914Y-71282499D02*
X127872914Y-71032499D01*
X127872914Y-71032499D02*
X127122914Y-70782499D01*
X127801485Y-70103928D02*
X127837200Y-70139642D01*
X127837200Y-70139642D02*
X127872914Y-70246785D01*
X127872914Y-70246785D02*
X127872914Y-70318213D01*
X127872914Y-70318213D02*
X127837200Y-70425356D01*
X127837200Y-70425356D02*
X127765771Y-70496785D01*
X127765771Y-70496785D02*
X127694342Y-70532499D01*
X127694342Y-70532499D02*
X127551485Y-70568213D01*
X127551485Y-70568213D02*
X127444342Y-70568213D01*
X127444342Y-70568213D02*
X127301485Y-70532499D01*
X127301485Y-70532499D02*
X127230057Y-70496785D01*
X127230057Y-70496785D02*
X127158628Y-70425356D01*
X127158628Y-70425356D02*
X127122914Y-70318213D01*
X127122914Y-70318213D02*
X127122914Y-70246785D01*
X127122914Y-70246785D02*
X127158628Y-70139642D01*
X127158628Y-70139642D02*
X127194342Y-70103928D01*
X127801485Y-69353928D02*
X127837200Y-69389642D01*
X127837200Y-69389642D02*
X127872914Y-69496785D01*
X127872914Y-69496785D02*
X127872914Y-69568213D01*
X127872914Y-69568213D02*
X127837200Y-69675356D01*
X127837200Y-69675356D02*
X127765771Y-69746785D01*
X127765771Y-69746785D02*
X127694342Y-69782499D01*
X127694342Y-69782499D02*
X127551485Y-69818213D01*
X127551485Y-69818213D02*
X127444342Y-69818213D01*
X127444342Y-69818213D02*
X127301485Y-69782499D01*
X127301485Y-69782499D02*
X127230057Y-69746785D01*
X127230057Y-69746785D02*
X127158628Y-69675356D01*
X127158628Y-69675356D02*
X127122914Y-69568213D01*
X127122914Y-69568213D02*
X127122914Y-69496785D01*
X127122914Y-69496785D02*
X127158628Y-69389642D01*
X127158628Y-69389642D02*
X127194342Y-69353928D01*
X127158628Y-68313928D02*
X127122914Y-68385357D01*
X127122914Y-68385357D02*
X127122914Y-68492499D01*
X127122914Y-68492499D02*
X127158628Y-68599642D01*
X127158628Y-68599642D02*
X127230057Y-68671071D01*
X127230057Y-68671071D02*
X127301485Y-68706785D01*
X127301485Y-68706785D02*
X127444342Y-68742499D01*
X127444342Y-68742499D02*
X127551485Y-68742499D01*
X127551485Y-68742499D02*
X127694342Y-68706785D01*
X127694342Y-68706785D02*
X127765771Y-68671071D01*
X127765771Y-68671071D02*
X127837200Y-68599642D01*
X127837200Y-68599642D02*
X127872914Y-68492499D01*
X127872914Y-68492499D02*
X127872914Y-68421071D01*
X127872914Y-68421071D02*
X127837200Y-68313928D01*
X127837200Y-68313928D02*
X127801485Y-68278214D01*
X127801485Y-68278214D02*
X127551485Y-68278214D01*
X127551485Y-68278214D02*
X127551485Y-68421071D01*
X127872914Y-67956785D02*
X127122914Y-67956785D01*
X127122914Y-67956785D02*
X127872914Y-67528214D01*
X127872914Y-67528214D02*
X127122914Y-67528214D01*
X127872914Y-67171071D02*
X127122914Y-67171071D01*
X127122914Y-67171071D02*
X127122914Y-66992500D01*
X127122914Y-66992500D02*
X127158628Y-66885357D01*
X127158628Y-66885357D02*
X127230057Y-66813928D01*
X127230057Y-66813928D02*
X127301485Y-66778214D01*
X127301485Y-66778214D02*
X127444342Y-66742500D01*
X127444342Y-66742500D02*
X127551485Y-66742500D01*
X127551485Y-66742500D02*
X127694342Y-66778214D01*
X127694342Y-66778214D02*
X127765771Y-66813928D01*
X127765771Y-66813928D02*
X127837200Y-66885357D01*
X127837200Y-66885357D02*
X127872914Y-66992500D01*
X127872914Y-66992500D02*
X127872914Y-67171071D01*
X108105178Y-71007319D02*
X108295654Y-71007319D01*
X108295654Y-71007319D02*
X108390892Y-71054938D01*
X108390892Y-71054938D02*
X108486130Y-71150176D01*
X108486130Y-71150176D02*
X108533749Y-71340652D01*
X108533749Y-71340652D02*
X108533749Y-71673985D01*
X108533749Y-71673985D02*
X108486130Y-71864461D01*
X108486130Y-71864461D02*
X108390892Y-71959700D01*
X108390892Y-71959700D02*
X108295654Y-72007319D01*
X108295654Y-72007319D02*
X108105178Y-72007319D01*
X108105178Y-72007319D02*
X108009940Y-71959700D01*
X108009940Y-71959700D02*
X107914702Y-71864461D01*
X107914702Y-71864461D02*
X107867083Y-71673985D01*
X107867083Y-71673985D02*
X107867083Y-71340652D01*
X107867083Y-71340652D02*
X107914702Y-71150176D01*
X107914702Y-71150176D02*
X108009940Y-71054938D01*
X108009940Y-71054938D02*
X108105178Y-71007319D01*
X109438511Y-72007319D02*
X108962321Y-72007319D01*
X108962321Y-72007319D02*
X108962321Y-71007319D01*
X109771845Y-71483509D02*
X110105178Y-71483509D01*
X110248035Y-72007319D02*
X109771845Y-72007319D01*
X109771845Y-72007319D02*
X109771845Y-71007319D01*
X109771845Y-71007319D02*
X110248035Y-71007319D01*
X110676607Y-72007319D02*
X110676607Y-71007319D01*
X110676607Y-71007319D02*
X110914702Y-71007319D01*
X110914702Y-71007319D02*
X111057559Y-71054938D01*
X111057559Y-71054938D02*
X111152797Y-71150176D01*
X111152797Y-71150176D02*
X111200416Y-71245414D01*
X111200416Y-71245414D02*
X111248035Y-71435890D01*
X111248035Y-71435890D02*
X111248035Y-71578747D01*
X111248035Y-71578747D02*
X111200416Y-71769223D01*
X111200416Y-71769223D02*
X111152797Y-71864461D01*
X111152797Y-71864461D02*
X111057559Y-71959700D01*
X111057559Y-71959700D02*
X110914702Y-72007319D01*
X110914702Y-72007319D02*
X110676607Y-72007319D01*
X112438512Y-72007319D02*
X112438512Y-71007319D01*
X112438512Y-71007319D02*
X112819464Y-71007319D01*
X112819464Y-71007319D02*
X112914702Y-71054938D01*
X112914702Y-71054938D02*
X112962321Y-71102557D01*
X112962321Y-71102557D02*
X113009940Y-71197795D01*
X113009940Y-71197795D02*
X113009940Y-71340652D01*
X113009940Y-71340652D02*
X112962321Y-71435890D01*
X112962321Y-71435890D02*
X112914702Y-71483509D01*
X112914702Y-71483509D02*
X112819464Y-71531128D01*
X112819464Y-71531128D02*
X112438512Y-71531128D01*
X113867083Y-72007319D02*
X113867083Y-71483509D01*
X113867083Y-71483509D02*
X113819464Y-71388271D01*
X113819464Y-71388271D02*
X113724226Y-71340652D01*
X113724226Y-71340652D02*
X113533750Y-71340652D01*
X113533750Y-71340652D02*
X113438512Y-71388271D01*
X113867083Y-71959700D02*
X113771845Y-72007319D01*
X113771845Y-72007319D02*
X113533750Y-72007319D01*
X113533750Y-72007319D02*
X113438512Y-71959700D01*
X113438512Y-71959700D02*
X113390893Y-71864461D01*
X113390893Y-71864461D02*
X113390893Y-71769223D01*
X113390893Y-71769223D02*
X113438512Y-71673985D01*
X113438512Y-71673985D02*
X113533750Y-71626366D01*
X113533750Y-71626366D02*
X113771845Y-71626366D01*
X113771845Y-71626366D02*
X113867083Y-71578747D01*
X114343274Y-71340652D02*
X114343274Y-72007319D01*
X114343274Y-71435890D02*
X114390893Y-71388271D01*
X114390893Y-71388271D02*
X114486131Y-71340652D01*
X114486131Y-71340652D02*
X114628988Y-71340652D01*
X114628988Y-71340652D02*
X114724226Y-71388271D01*
X114724226Y-71388271D02*
X114771845Y-71483509D01*
X114771845Y-71483509D02*
X114771845Y-72007319D01*
X115628988Y-71959700D02*
X115533750Y-72007319D01*
X115533750Y-72007319D02*
X115343274Y-72007319D01*
X115343274Y-72007319D02*
X115248036Y-71959700D01*
X115248036Y-71959700D02*
X115200417Y-71864461D01*
X115200417Y-71864461D02*
X115200417Y-71483509D01*
X115200417Y-71483509D02*
X115248036Y-71388271D01*
X115248036Y-71388271D02*
X115343274Y-71340652D01*
X115343274Y-71340652D02*
X115533750Y-71340652D01*
X115533750Y-71340652D02*
X115628988Y-71388271D01*
X115628988Y-71388271D02*
X115676607Y-71483509D01*
X115676607Y-71483509D02*
X115676607Y-71578747D01*
X115676607Y-71578747D02*
X115200417Y-71673985D01*
X116248036Y-72007319D02*
X116152798Y-71959700D01*
X116152798Y-71959700D02*
X116105179Y-71864461D01*
X116105179Y-71864461D02*
X116105179Y-71007319D01*
X101060417Y-83020700D02*
X101203274Y-83068319D01*
X101203274Y-83068319D02*
X101441369Y-83068319D01*
X101441369Y-83068319D02*
X101536607Y-83020700D01*
X101536607Y-83020700D02*
X101584226Y-82973080D01*
X101584226Y-82973080D02*
X101631845Y-82877842D01*
X101631845Y-82877842D02*
X101631845Y-82782604D01*
X101631845Y-82782604D02*
X101584226Y-82687366D01*
X101584226Y-82687366D02*
X101536607Y-82639747D01*
X101536607Y-82639747D02*
X101441369Y-82592128D01*
X101441369Y-82592128D02*
X101250893Y-82544509D01*
X101250893Y-82544509D02*
X101155655Y-82496890D01*
X101155655Y-82496890D02*
X101108036Y-82449271D01*
X101108036Y-82449271D02*
X101060417Y-82354033D01*
X101060417Y-82354033D02*
X101060417Y-82258795D01*
X101060417Y-82258795D02*
X101108036Y-82163557D01*
X101108036Y-82163557D02*
X101155655Y-82115938D01*
X101155655Y-82115938D02*
X101250893Y-82068319D01*
X101250893Y-82068319D02*
X101488988Y-82068319D01*
X101488988Y-82068319D02*
X101631845Y-82115938D01*
X101965179Y-82068319D02*
X102203274Y-83068319D01*
X102203274Y-83068319D02*
X102393750Y-82354033D01*
X102393750Y-82354033D02*
X102584226Y-83068319D01*
X102584226Y-83068319D02*
X102822322Y-82068319D01*
X103155655Y-82163557D02*
X103203274Y-82115938D01*
X103203274Y-82115938D02*
X103298512Y-82068319D01*
X103298512Y-82068319D02*
X103536607Y-82068319D01*
X103536607Y-82068319D02*
X103631845Y-82115938D01*
X103631845Y-82115938D02*
X103679464Y-82163557D01*
X103679464Y-82163557D02*
X103727083Y-82258795D01*
X103727083Y-82258795D02*
X103727083Y-82354033D01*
X103727083Y-82354033D02*
X103679464Y-82496890D01*
X103679464Y-82496890D02*
X103108036Y-83068319D01*
X103108036Y-83068319D02*
X103727083Y-83068319D01*
D13*
%TO.C,U1*%
X134137500Y-61765000D02*
X134137500Y-75735000D01*
X136042500Y-59860000D02*
X153187500Y-59860000D01*
X136042500Y-77640000D02*
X153187500Y-77640000D01*
X155092500Y-64255000D02*
X156002772Y-64258728D01*
D10*
X155092500Y-75735000D02*
X155092500Y-61765000D01*
D13*
X155092500Y-75735000D02*
X155092500Y-61765000D01*
X156002500Y-73254000D02*
X155092500Y-73254000D01*
X156502500Y-64758728D02*
X156502500Y-72754000D01*
X134137500Y-61765000D02*
G75*
G02*
X136042500Y-59860000I1905001J-1D01*
G01*
X136042500Y-77640000D02*
G75*
G02*
X134137500Y-75735000I0J1905000D01*
G01*
X153187500Y-59860000D02*
G75*
G02*
X155092500Y-61765000I-1J-1905001D01*
G01*
X155092500Y-75735000D02*
G75*
G02*
X153187500Y-77640000I-1905000J0D01*
G01*
X156002772Y-64258728D02*
G75*
G02*
X156502499Y-64758728I-291J-500018D01*
G01*
X156502500Y-72754000D02*
G75*
G02*
X156002500Y-73254000I-500000J0D01*
G01*
D14*
X154223500Y-60943000D02*
G75*
G02*
X153719500Y-60943000I-252000J0D01*
G01*
X153719500Y-60943000D02*
G75*
G02*
X154223500Y-60943000I252000J0D01*
G01*
X155103500Y-59800000D02*
G75*
G02*
X154599500Y-59800000I-252000J0D01*
G01*
X154599500Y-59800000D02*
G75*
G02*
X155103500Y-59800000I252000J0D01*
G01*
D15*
%TO.C,SW4*%
X133508750Y-83502500D02*
X147478750Y-83502500D01*
X133508750Y-97472500D02*
X133508750Y-83502500D01*
X147478750Y-83502500D02*
X147478750Y-97472500D01*
X147478750Y-97472500D02*
X133508750Y-97472500D01*
%TO.C,D3*%
X111115000Y-63650000D02*
X111115000Y-58050000D01*
X111115000Y-63650000D02*
X115115000Y-63650000D01*
X114515000Y-58050000D02*
X111115000Y-58050000D01*
X114515000Y-58050000D02*
X115115000Y-58650000D01*
X115115000Y-63650000D02*
X115115000Y-58650000D01*
%TO.C,SW5*%
X75090000Y-63840000D02*
X75690000Y-63840000D01*
X75390000Y-64140000D02*
X75090000Y-63840000D01*
X75690000Y-63840000D02*
X75390000Y-64140000D01*
X76790000Y-62140000D02*
X76790000Y-73840000D01*
X80890000Y-62140000D02*
X76790000Y-62140000D01*
X80890000Y-73840000D02*
X76790000Y-73840000D01*
X82390000Y-67940000D02*
X83390000Y-67940000D01*
X82890000Y-67440000D02*
X82890000Y-68440000D01*
X84890000Y-62040000D02*
X88990000Y-62040000D01*
X88990000Y-62040000D02*
X88990000Y-64640000D01*
X88990000Y-66640000D02*
X88990000Y-69240000D01*
X88990000Y-71240000D02*
X88990000Y-73840000D01*
X88990000Y-73840000D02*
X84890000Y-73840000D01*
X85890000Y-67940000D02*
G75*
G02*
X79890000Y-67940000I-3000000J0D01*
G01*
X79890000Y-67940000D02*
G75*
G02*
X85890000Y-67940000I3000000J0D01*
G01*
%TO.C,D1*%
X100875000Y-63650000D02*
X100875000Y-58050000D01*
X100875000Y-63650000D02*
X104875000Y-63650000D01*
X104275000Y-58050000D02*
X100875000Y-58050000D01*
X104275000Y-58050000D02*
X104875000Y-58650000D01*
X104875000Y-63650000D02*
X104875000Y-58650000D01*
%TO.C,SW3*%
X114458750Y-83502500D02*
X128428750Y-83502500D01*
X114458750Y-97472500D02*
X114458750Y-83502500D01*
X128428750Y-83502500D02*
X128428750Y-97472500D01*
X128428750Y-97472500D02*
X114458750Y-97472500D01*
%TO.C,SW1*%
X76358750Y-83502500D02*
X90328750Y-83502500D01*
X76358750Y-97472500D02*
X76358750Y-83502500D01*
X90328750Y-83502500D02*
X90328750Y-97472500D01*
X90328750Y-97472500D02*
X76358750Y-97472500D01*
%TO.C,D4*%
X116235000Y-63650000D02*
X116235000Y-58050000D01*
X116235000Y-63650000D02*
X120235000Y-63650000D01*
X119635000Y-58050000D02*
X116235000Y-58050000D01*
X119635000Y-58050000D02*
X120235000Y-58650000D01*
X120235000Y-63650000D02*
X120235000Y-58650000D01*
%TO.C,D2*%
X105995000Y-63650000D02*
X105995000Y-58050000D01*
X105995000Y-63650000D02*
X109995000Y-63650000D01*
X109395000Y-58050000D02*
X105995000Y-58050000D01*
X109395000Y-58050000D02*
X109995000Y-58650000D01*
X109995000Y-63650000D02*
X109995000Y-58650000D01*
D16*
%TO.C,U2*%
X93033750Y-65552500D02*
X93033750Y-77552500D01*
X93033750Y-77552500D02*
X131033750Y-77552500D01*
X96533750Y-65552500D02*
X96533750Y-77552500D01*
X126033750Y-65552500D02*
X126033750Y-77552500D01*
X131033750Y-65552500D02*
X93033750Y-65552500D01*
X131033750Y-77552500D02*
X131033750Y-65552500D01*
D15*
%TO.C,SW2*%
X95408750Y-83502500D02*
X109378750Y-83502500D01*
X95408750Y-97472500D02*
X95408750Y-83502500D01*
X109378750Y-83502500D02*
X109378750Y-97472500D01*
X109378750Y-97472500D02*
X95408750Y-97472500D01*
%TD*%
M02*
